<mxfile host="app.diagrams.net" agent="Mozilla/5.0 (Windows NT 10.0; Win64; x64; rv:139.0) Gecko/20100101 Firefox/139.0" version="26.2.14">
  <diagram name="Page-1" id="BbwpbvS8BRUh1gAscrvs">
    <mxGraphModel dx="1188" dy="633" grid="1" gridSize="10" guides="1" tooltips="1" connect="1" arrows="1" fold="1" page="1" pageScale="1" pageWidth="850" pageHeight="1100" math="0" shadow="0">
      <root>
        <mxCell id="0" />
        <mxCell id="1" parent="0" />
        <mxCell id="IE3H_PvMWQA-5wgTKLuX-1" value="" style="rounded=0;whiteSpace=wrap;html=1;aspect=fixed;" vertex="1" parent="1">
          <mxGeometry x="10" y="100" width="825.54" height="464.37" as="geometry" />
        </mxCell>
        <mxCell id="IE3H_PvMWQA-5wgTKLuX-2" value="" style="ellipse;whiteSpace=wrap;html=1;aspect=fixed;sketch=1;curveFitting=1;jiggle=2;fillColor=#dae8fc;strokeColor=#6c8ebf;" vertex="1" parent="1">
          <mxGeometry x="20" y="110" width="40" height="40" as="geometry" />
        </mxCell>
        <mxCell id="IE3H_PvMWQA-5wgTKLuX-3" value="" style="ellipse;whiteSpace=wrap;html=1;aspect=fixed;sketch=1;curveFitting=1;jiggle=2;fillColor=#060606;" vertex="1" parent="1">
          <mxGeometry x="214" y="120.78" width="422.81" height="422.81" as="geometry" />
        </mxCell>
        <mxCell id="IE3H_PvMWQA-5wgTKLuX-4" value="" style="ellipse;whiteSpace=wrap;html=1;aspect=fixed;sketch=1;curveFitting=1;jiggle=2;" vertex="1" parent="1">
          <mxGeometry x="338.16" y="247.58" width="169.22" height="169.22" as="geometry" />
        </mxCell>
        <mxCell id="IE3H_PvMWQA-5wgTKLuX-6" value="" style="ellipse;whiteSpace=wrap;html=1;aspect=fixed;sketch=1;curveFitting=1;jiggle=2;fillColor=#fff2cc;strokeColor=#d6b656;" vertex="1" parent="1">
          <mxGeometry x="338.16" y="247.57000000000005" width="169.22" height="169.22" as="geometry" />
        </mxCell>
        <mxCell id="IE3H_PvMWQA-5wgTKLuX-8" value="Legal Info." style="text;align=center;verticalAlign=middle;rounded=0;fontFamily=Just Another Hand;fontSource=https%3A%2F%2Ffonts.googleapis.com%2Fcss%3Ffamily%3DJust%2BAnother%2BHand;fontSize=18;fontStyle=0;spacing=4;spacingRight=0;html=1;" vertex="1" parent="1">
          <mxGeometry x="5" y="533" width="80" height="30" as="geometry" />
        </mxCell>
        <mxCell id="IE3H_PvMWQA-5wgTKLuX-14" value="User Profile Picture" style="text;html=1;align=left;verticalAlign=middle;whiteSpace=wrap;rounded=0;fontColor=#B85450;fontFamily=Courier New;" vertex="1" parent="1">
          <mxGeometry x="40" y="165" width="150" height="20" as="geometry" />
        </mxCell>
        <mxCell id="IE3H_PvMWQA-5wgTKLuX-16" value="" style="endArrow=classic;html=1;rounded=0;entryX=0;entryY=0;entryDx=0;entryDy=0;exitX=0.5;exitY=1;exitDx=0;exitDy=0;fontColor=#B85450;fillColor=#f8cecc;strokeColor=#b85450;" edge="1" parent="1" target="IE3H_PvMWQA-5wgTKLuX-14">
          <mxGeometry width="50" height="50" relative="1" as="geometry">
            <mxPoint x="40" y="135" as="sourcePoint" />
            <mxPoint x="150" y="105" as="targetPoint" />
          </mxGeometry>
        </mxCell>
        <mxCell id="IE3H_PvMWQA-5wgTKLuX-17" value="" style="curved=1;endArrow=classic;html=1;rounded=0;fillColor=#f5f5f5;strokeColor=#666666;sketch=1;curveFitting=1;jiggle=2;" edge="1" parent="1">
          <mxGeometry width="50" height="50" relative="1" as="geometry">
            <mxPoint x="590" y="180" as="sourcePoint" />
            <mxPoint x="550" y="110" as="targetPoint" />
            <Array as="points">
              <mxPoint x="619.91" y="139.82" />
            </Array>
          </mxGeometry>
        </mxCell>
        <mxCell id="IE3H_PvMWQA-5wgTKLuX-19" value="" style="curved=1;endArrow=classic;html=1;rounded=0;fillColor=#f5f5f5;strokeColor=#666666;sketch=1;curveFitting=1;jiggle=2;" edge="1" parent="1">
          <mxGeometry width="50" height="50" relative="1" as="geometry">
            <mxPoint x="240" y="470" as="sourcePoint" />
            <mxPoint x="280" y="540" as="targetPoint" />
            <Array as="points">
              <mxPoint x="220" y="520" />
            </Array>
          </mxGeometry>
        </mxCell>
        <mxCell id="IE3H_PvMWQA-5wgTKLuX-20" value="Username" style="text;align=left;verticalAlign=middle;rounded=0;fontFamily=Just Another Hand;fontSource=https%3A%2F%2Ffonts.googleapis.com%2Fcss%3Ffamily%3DJust%2BAnother%2BHand;fontSize=18;fontStyle=0;spacing=4;spacingRight=0;html=1;" vertex="1" parent="1">
          <mxGeometry x="70" y="115" width="80" height="30" as="geometry" />
        </mxCell>
        <mxCell id="IE3H_PvMWQA-5wgTKLuX-22" value="" style="rounded=0;whiteSpace=wrap;html=1;sketch=1;curveFitting=1;jiggle=2;glass=0;shadow=0;" vertex="1" parent="1">
          <mxGeometry x="790" y="232.19" width="30" height="200" as="geometry" />
        </mxCell>
        <mxCell id="IE3H_PvMWQA-5wgTKLuX-23" value="" style="rounded=0;whiteSpace=wrap;html=1;sketch=1;curveFitting=1;jiggle=2;glass=0;shadow=0;fillColor=#dae8fc;strokeColor=#6c8ebf;" vertex="1" parent="1">
          <mxGeometry x="790" y="290" width="30" height="142.18" as="geometry" />
        </mxCell>
        <mxCell id="IE3H_PvMWQA-5wgTKLuX-24" value="" style="ellipse;whiteSpace=wrap;html=1;aspect=fixed;fillColor=#f8cecc;strokeColor=#b85450;sketch=1;curveFitting=1;jiggle=2;" vertex="1" parent="1">
          <mxGeometry x="790" y="280" width="30" height="30" as="geometry" />
        </mxCell>
        <mxCell id="IE3H_PvMWQA-5wgTKLuX-25" value="" style="rounded=0;whiteSpace=wrap;html=1;sketch=1;curveFitting=1;jiggle=2;glass=0;shadow=0;dashed=1;dashPattern=8 8;" vertex="1" parent="1">
          <mxGeometry x="630" y="110" width="190" height="100" as="geometry" />
        </mxCell>
        <mxCell id="IE3H_PvMWQA-5wgTKLuX-27" value="" style="rounded=0;whiteSpace=wrap;html=1;sketch=1;curveFitting=1;jiggle=2;glass=0;shadow=0;dashed=1;dashPattern=8 8;" vertex="1" parent="1">
          <mxGeometry x="20" y="271.57" width="160" height="252.43" as="geometry" />
        </mxCell>
        <mxCell id="IE3H_PvMWQA-5wgTKLuX-28" value="Settings" style="text;align=center;verticalAlign=middle;rounded=0;fontFamily=Just Another Hand;fontSource=https%3A%2F%2Ffonts.googleapis.com%2Fcss%3Ffamily%3DJust%2BAnother%2BHand;fontSize=18;fontStyle=0;spacing=4;spacingRight=0;html=1;" vertex="1" parent="1">
          <mxGeometry x="10" y="274" width="80" height="30" as="geometry" />
        </mxCell>
        <mxCell id="IE3H_PvMWQA-5wgTKLuX-30" value="" style="ellipse;whiteSpace=wrap;html=1;aspect=fixed;fillColor=#f8cecc;strokeColor=#b85450;sketch=1;curveFitting=1;jiggle=2;" vertex="1" parent="1">
          <mxGeometry x="716" y="180" width="18" height="18" as="geometry" />
        </mxCell>
        <mxCell id="IE3H_PvMWQA-5wgTKLuX-32" value="" style="triangle;whiteSpace=wrap;html=1;fillColor=#f8cecc;strokeColor=#b85450;sketch=1;curveFitting=1;jiggle=2;" vertex="1" parent="1">
          <mxGeometry x="750" y="180" width="20" height="20" as="geometry" />
        </mxCell>
        <mxCell id="IE3H_PvMWQA-5wgTKLuX-33" value="" style="triangle;whiteSpace=wrap;html=1;fillColor=#f8cecc;strokeColor=#b85450;sketch=1;curveFitting=1;jiggle=2;rotation=-180;" vertex="1" parent="1">
          <mxGeometry x="680" y="180" width="20" height="20" as="geometry" />
        </mxCell>
        <mxCell id="IE3H_PvMWQA-5wgTKLuX-34" value="" style="whiteSpace=wrap;html=1;aspect=fixed;sketch=1;curveFitting=1;jiggle=2;fillColor=#fff2cc;strokeColor=#d6b656;" vertex="1" parent="1">
          <mxGeometry x="650" y="115" width="60" height="60" as="geometry" />
        </mxCell>
        <mxCell id="IE3H_PvMWQA-5wgTKLuX-35" value="&lt;div&gt;Song Name&lt;/div&gt;&lt;div&gt;Album Name&lt;/div&gt;&lt;div&gt;Artist Name&lt;/div&gt;" style="text;align=left;verticalAlign=middle;rounded=0;fontFamily=Just Another Hand;fontSource=https%3A%2F%2Ffonts.googleapis.com%2Fcss%3Ffamily%3DJust%2BAnother%2BHand;fontSize=18;fontStyle=0;spacing=4;spacingRight=0;html=1;" vertex="1" parent="1">
          <mxGeometry x="720" y="130" width="80" height="30" as="geometry" />
        </mxCell>
        <mxCell id="IE3H_PvMWQA-5wgTKLuX-36" value="" style="whiteSpace=wrap;html=1;aspect=fixed;fillColor=#d5e8d4;strokeColor=#82b366;sketch=1;curveFitting=1;jiggle=2;" vertex="1" parent="1">
          <mxGeometry x="35" y="314" width="30" height="30" as="geometry" />
        </mxCell>
        <mxCell id="IE3H_PvMWQA-5wgTKLuX-37" value="" style="whiteSpace=wrap;html=1;aspect=fixed;fillColor=#d5e8d4;strokeColor=#82b366;sketch=1;curveFitting=1;jiggle=2;" vertex="1" parent="1">
          <mxGeometry x="35" y="364" width="30" height="30" as="geometry" />
        </mxCell>
        <mxCell id="IE3H_PvMWQA-5wgTKLuX-38" value="" style="whiteSpace=wrap;html=1;aspect=fixed;fillColor=#f8cecc;strokeColor=#b85450;sketch=1;curveFitting=1;jiggle=2;" vertex="1" parent="1">
          <mxGeometry x="35" y="410.79" width="30" height="30" as="geometry" />
        </mxCell>
        <mxCell id="IE3H_PvMWQA-5wgTKLuX-39" value="" style="rounded=0;whiteSpace=wrap;html=1;sketch=1;curveFitting=1;jiggle=2;glass=0;shadow=0;" vertex="1" parent="1">
          <mxGeometry x="35" y="486.19" width="130" height="20" as="geometry" />
        </mxCell>
        <mxCell id="IE3H_PvMWQA-5wgTKLuX-40" value="" style="rounded=0;whiteSpace=wrap;html=1;sketch=1;curveFitting=1;jiggle=2;glass=0;shadow=0;fillColor=#dae8fc;strokeColor=#6c8ebf;" vertex="1" parent="1">
          <mxGeometry x="35" y="488.1" width="95" height="17.09" as="geometry" />
        </mxCell>
        <mxCell id="IE3H_PvMWQA-5wgTKLuX-41" value="" style="ellipse;whiteSpace=wrap;html=1;aspect=fixed;fillColor=#f8cecc;strokeColor=#b85450;sketch=1;curveFitting=1;jiggle=2;" vertex="1" parent="1">
          <mxGeometry x="124" y="489.09999999999997" width="12.19" height="12.19" as="geometry" />
        </mxCell>
        <mxCell id="IE3H_PvMWQA-5wgTKLuX-42" value="Disable Motor" style="text;align=left;verticalAlign=middle;rounded=0;fontFamily=Just Another Hand;fontSource=https%3A%2F%2Ffonts.googleapis.com%2Fcss%3Ffamily%3DJust%2BAnother%2BHand;fontSize=18;fontStyle=0;spacing=4;spacingRight=0;html=1;" vertex="1" parent="1">
          <mxGeometry x="70" y="314" width="80" height="30" as="geometry" />
        </mxCell>
        <mxCell id="IE3H_PvMWQA-5wgTKLuX-43" value="Disable Remote Access" style="text;align=left;verticalAlign=middle;rounded=0;fontFamily=Just Another Hand;fontSource=https%3A%2F%2Ffonts.googleapis.com%2Fcss%3Ffamily%3DJust%2BAnother%2BHand;fontSize=18;fontStyle=0;spacing=4;spacingRight=0;html=1;" vertex="1" parent="1">
          <mxGeometry x="70" y="364" width="80" height="30" as="geometry" />
        </mxCell>
        <mxCell id="IE3H_PvMWQA-5wgTKLuX-44" value="Enable Non-Host Access" style="text;align=left;verticalAlign=middle;rounded=0;fontFamily=Just Another Hand;fontSource=https%3A%2F%2Ffonts.googleapis.com%2Fcss%3Ffamily%3DJust%2BAnother%2BHand;fontSize=18;fontStyle=0;spacing=4;spacingRight=0;html=1;" vertex="1" parent="1">
          <mxGeometry x="70" y="410.8" width="80" height="30" as="geometry" />
        </mxCell>
        <mxCell id="IE3H_PvMWQA-5wgTKLuX-45" value="Zoom Level" style="text;align=left;verticalAlign=middle;rounded=0;fontFamily=Just Another Hand;fontSource=https%3A%2F%2Ffonts.googleapis.com%2Fcss%3Ffamily%3DJust%2BAnother%2BHand;fontSize=18;fontStyle=0;spacing=4;spacingRight=0;html=1;" vertex="1" parent="1">
          <mxGeometry x="70" y="456.19" width="80" height="30" as="geometry" />
        </mxCell>
        <mxCell id="IE3H_PvMWQA-5wgTKLuX-50" style="edgeStyle=orthogonalEdgeStyle;rounded=0;orthogonalLoop=1;jettySize=auto;html=1;entryX=0;entryY=0.5;entryDx=0;entryDy=0;fillColor=#f8cecc;strokeColor=#b85450;" edge="1" parent="1" source="IE3H_PvMWQA-5wgTKLuX-48" target="IE3H_PvMWQA-5wgTKLuX-24">
          <mxGeometry relative="1" as="geometry" />
        </mxCell>
        <mxCell id="IE3H_PvMWQA-5wgTKLuX-48" value="&lt;div align=&quot;right&quot;&gt;Volume Slider&lt;/div&gt;" style="text;html=1;align=right;verticalAlign=middle;whiteSpace=wrap;rounded=0;fontColor=#B85450;fontFamily=Courier New;" vertex="1" parent="1">
          <mxGeometry x="680" y="440.8" width="150" height="20" as="geometry" />
        </mxCell>
        <mxCell id="IE3H_PvMWQA-5wgTKLuX-51" value="Playback Controls" style="text;html=1;align=right;verticalAlign=middle;whiteSpace=wrap;rounded=0;fontColor=#B85450;fontFamily=Courier New;" vertex="1" parent="1">
          <mxGeometry x="620" y="232.19" width="150" height="20" as="geometry" />
        </mxCell>
        <mxCell id="IE3H_PvMWQA-5wgTKLuX-52" style="edgeStyle=orthogonalEdgeStyle;rounded=0;orthogonalLoop=1;jettySize=auto;html=1;exitX=0.75;exitY=0;exitDx=0;exitDy=0;entryX=0.382;entryY=1.003;entryDx=0;entryDy=0;entryPerimeter=0;fillColor=#f8cecc;strokeColor=#b85450;" edge="1" parent="1" source="IE3H_PvMWQA-5wgTKLuX-51" target="IE3H_PvMWQA-5wgTKLuX-25">
          <mxGeometry relative="1" as="geometry" />
        </mxCell>
        <mxCell id="IE3H_PvMWQA-5wgTKLuX-53" value="Centre Label" style="text;html=1;align=left;verticalAlign=middle;whiteSpace=wrap;rounded=0;fontColor=#B85450;fontFamily=Courier New;" vertex="1" parent="1">
          <mxGeometry x="615" y="481.29" width="150" height="20" as="geometry" />
        </mxCell>
        <mxCell id="IE3H_PvMWQA-5wgTKLuX-54" value="" style="endArrow=classic;html=1;rounded=0;entryX=0;entryY=0.5;entryDx=0;entryDy=0;fillColor=#f8cecc;strokeColor=#b85450;" edge="1" parent="1" source="IE3H_PvMWQA-5wgTKLuX-6" target="IE3H_PvMWQA-5wgTKLuX-53">
          <mxGeometry width="50" height="50" relative="1" as="geometry">
            <mxPoint x="570" y="610" as="sourcePoint" />
            <mxPoint x="620" y="560" as="targetPoint" />
          </mxGeometry>
        </mxCell>
        <mxCell id="IE3H_PvMWQA-5wgTKLuX-55" value="Vinyl" style="text;html=1;align=left;verticalAlign=middle;whiteSpace=wrap;rounded=0;fontColor=#B85450;fontFamily=Courier New;" vertex="1" parent="1">
          <mxGeometry x="615" y="506.19" width="150" height="20" as="geometry" />
        </mxCell>
        <mxCell id="IE3H_PvMWQA-5wgTKLuX-56" value="" style="endArrow=classic;html=1;rounded=0;entryX=0;entryY=0.5;entryDx=0;entryDy=0;exitX=0.861;exitY=0.86;exitDx=0;exitDy=0;exitPerimeter=0;fillColor=#f8cecc;strokeColor=#b85450;" edge="1" parent="1" source="IE3H_PvMWQA-5wgTKLuX-3" target="IE3H_PvMWQA-5wgTKLuX-55">
          <mxGeometry width="50" height="50" relative="1" as="geometry">
            <mxPoint x="530" y="620" as="sourcePoint" />
            <mxPoint x="580" y="570" as="targetPoint" />
          </mxGeometry>
        </mxCell>
        <mxCell id="IE3H_PvMWQA-5wgTKLuX-57" value="" style="triangle;whiteSpace=wrap;html=1;rotation=-115;sketch=1;curveFitting=1;jiggle=2;fillColor=#f5f5f5;fontColor=#333333;strokeColor=#666666;" vertex="1" parent="1">
          <mxGeometry x="80" y="215.91" width="26.19" height="22.81" as="geometry" />
        </mxCell>
        <mxCell id="IE3H_PvMWQA-5wgTKLuX-58" value="" style="rounded=0;whiteSpace=wrap;html=1;rotation=-26;sketch=1;curveFitting=1;jiggle=2;fillColor=#f5f5f5;fontColor=#333333;strokeColor=#666666;" vertex="1" parent="1">
          <mxGeometry x="97.19" y="238.29000000000002" width="10" height="18.19" as="geometry" />
        </mxCell>
        <mxCell id="IE3H_PvMWQA-5wgTKLuX-59" value="Cursor Active" style="text;html=1;align=left;verticalAlign=middle;whiteSpace=wrap;rounded=0;fontColor=#B85450;fontFamily=Courier New;" vertex="1" parent="1">
          <mxGeometry x="120" y="214.91" width="150" height="20" as="geometry" />
        </mxCell>
        <mxCell id="IE3H_PvMWQA-5wgTKLuX-60" value="" style="endArrow=classic;html=1;rounded=0;exitX=0.5;exitY=1;exitDx=0;exitDy=0;entryX=0;entryY=0.5;entryDx=0;entryDy=0;fillColor=#f8cecc;strokeColor=#b85450;" edge="1" parent="1" source="IE3H_PvMWQA-5wgTKLuX-57" target="IE3H_PvMWQA-5wgTKLuX-59">
          <mxGeometry width="50" height="50" relative="1" as="geometry">
            <mxPoint x="135" y="214" as="sourcePoint" />
            <mxPoint x="185" y="164" as="targetPoint" />
          </mxGeometry>
        </mxCell>
        <mxCell id="IE3H_PvMWQA-5wgTKLuX-62" value="" style="curved=1;endArrow=classic;html=1;rounded=0;fillColor=#f5f5f5;strokeColor=#666666;sketch=1;curveFitting=1;jiggle=2;" edge="1" parent="1">
          <mxGeometry width="50" height="50" relative="1" as="geometry">
            <mxPoint x="85" y="232.78" as="sourcePoint" />
            <mxPoint x="55" y="192" as="targetPoint" />
            <Array as="points">
              <mxPoint x="45" y="222" />
            </Array>
          </mxGeometry>
        </mxCell>
      </root>
    </mxGraphModel>
  </diagram>
</mxfile>
